<?xml version="1.0" encoding="utf-8"?>
<!-- Generator: Adobe Illustrator 16.0.0, SVG Export Plug-In . SVG Version: 6.00 Build 0)  -->
<!DOCTYPE svg PUBLIC "-//W3C//DTD SVG 1.1//EN" "http://www.w3.org/Graphics/SVG/1.1/DTD/svg11.dtd">
<svg version="1.1" xmlns="http://www.w3.org/2000/svg" xmlns:xlink="http://www.w3.org/1999/xlink" x="0px" y="0px" width="184px"
	 height="184.666px" viewBox="0 0 184 184.666" enable-background="new 0 0 184 184.666" xml:space="preserve">
<g id="Background">
</g>
<g id="Guides">
</g>
<g id="Foreground">
	<g>
		<g>
			<path fill-rule="evenodd" clip-rule="evenodd" d="M44.431,125.883c-0.158,0.308,8.081,10.865,15.15,15.652
				c6.224,4.215,17.15,8.979,17.699,7.809c0.961-2.04-8.391-5.295-16.361-10.552C52.747,133.402,46.152,122.51,44.431,125.883z"/>
			<g>
				<path d="M162.744,19.328c-1.235,0.196-2.396,0.46-3.661,0.42c-4.438-0.143-7.519-3.07-8.541-7.193
					c-1.471,1.526-2.235,2.462-3.432,4.201c-1.134,1.646-1.705,2.631-2.565,4.427l-2.257,1.329l-0.988-1.409
					c-0.455-0.647-1.361-0.813-2.025-0.369c-0.663,0.443-0.833,1.328-0.378,1.975l0.733,1.046l-1.216,0.591l-1.021-1.455
					c-0.454-0.647-1.36-0.813-2.023-0.37c-0.664,0.444-0.834,1.328-0.379,1.976l0.792,1.129l-1.094,0.532l-0.992-1.414
					c-0.454-0.648-1.36-0.813-2.024-0.369c-0.664,0.443-0.834,1.328-0.379,1.976l0.764,1.087l-1.922,0.934l-0.015-0.02l-0.176,0.113
					l-0.026,0.036l-3.859,2.815l-0.012,0.037L99.333,66.17c-6.314-7.92-18.753-11.949-29.72-7.79
					c-12.467,4.728-7.242,21.753-15.611,29.77c-10.511,10.068-28.542,7.451-35.227,21.954c-1.821,3.95-2.524,8.899-1.658,13.142
					c0.873,4.272,3.059,8.26,5.565,11.823c2.47,3.513,5.419,6.655,8.633,9.529c2.628,2.352,5.389,4.576,8.236,6.669
					c4.423,3.254,8.961,6.363,13.453,9.523c0.933,0.656,1.856,1.327,2.799,1.97c5.438,3.704,11.218,7.019,17.506,9.128
					c5.502,1.844,11.578,2.883,17.317,1.473c3.29-0.809,6.62-2.594,9.182-4.769c12.294-10.442,4.506-26.524,11.34-39.255
					c5.441-10.138,23.657-10.186,24.687-23.197c0.945-11.951-7.329-22.819-17.526-25.94l26.835-34.973l-0.019-0.014
					c0.229-0.107,0.398-0.423,0.539-0.631l2.32-1.681l-0.038-0.072l1.25-0.635l0.981,1.266c0.485,0.626,1.399,0.75,2.04,0.276
					c0.642-0.473,0.769-1.365,0.284-1.991l-0.686-0.884l0.113-0.058l1.09-0.554l0.93,1.2c0.485,0.625,1.398,0.75,2.04,0.276
					c0.642-0.474,0.769-1.365,0.282-1.991l-0.632-0.816l0.894-0.454l0.972,1.253c0.485,0.626,1.398,0.75,2.04,0.276
					c0.641-0.473,0.769-1.364,0.283-1.99l-0.675-0.871l0.612-0.311l1.899-1.147c2.713,0.285,8.292-3.107,9.711-6.076
					c-0.092,0.19-2.067-0.03-2.323-0.061c-0.673-0.079-1.332-0.234-1.955-0.497C163.054,27.34,162.749,23.027,162.744,19.328z
					 M115.406,78.69c-0.266-0.249-0.523-0.505-0.764-0.742l26.701-35.256c0.361,0.263,0.719,0.525,1.079,0.788L115.406,78.69z
					 M93.625,103.714l-7.093,9.364c-0.605,0.085-1.212,0.108-1.811,0.065l2.837-3.745c1.524-0.728,2.516-2.114,2.766-3.653
					l2.829-3.734C93.377,102.572,93.533,103.14,93.625,103.714z M93.708,105.587c-0.227,2.934-2.065,5.65-5.023,6.903
					c-0.094,0.039-0.188,0.067-0.282,0.104L93.708,105.587z M77.08,106.41l7.24-9.56c0.528-0.063,1.055-0.075,1.577-0.041
					l-2.873,3.794c-1.438,0.723-2.388,2.041-2.657,3.508l-2.863,3.781C77.312,107.403,77.171,106.908,77.08,106.41z M76.961,104.582
					c0.152-3.014,2.004-5.833,5.033-7.117c0.164-0.068,0.329-0.123,0.495-0.181L76.961,104.582z M86.341,107.23
					c-0.19,0.082-0.386,0.135-0.582,0.166l2.073-2.737C87.976,105.717,87.396,106.784,86.341,107.23z M84.372,107.243
					c-0.37-0.151-0.703-0.386-0.967-0.694l2.904-3.834c0.369,0.15,0.702,0.387,0.965,0.696L84.372,107.243z M75.827,116.555
					l2.348-3.101c0.311,0.249,0.632,0.48,0.966,0.694l-2.348,3.101C76.463,117.031,76.14,116.799,75.827,116.555z M79.886,111.196
					l1.991-2.628c0.294,0.27,0.621,0.498,0.968,0.69l-1.998,2.639C80.51,111.689,80.191,111.451,79.886,111.196z M84.337,102.725
					c0.192-0.081,0.391-0.135,0.588-0.167l-2.079,2.744C82.7,104.243,83.28,103.173,84.337,102.725z M87.836,100.699l1.998-2.639
					c0.338,0.208,0.655,0.447,0.96,0.702l-1.99,2.629C88.509,101.121,88.183,100.891,87.836,100.699z M91.54,95.808l2.347-3.1
					c0.331,0.219,0.653,0.45,0.967,0.695l-2.349,3.1C92.195,96.254,91.873,96.022,91.54,95.808z M95.699,90.318l9.67-12.77
					l0.146,0.094c0.048-0.062,0.094-0.123,0.141-0.185l0.787,0.643l-9.777,12.911C96.351,90.768,96.027,90.539,95.699,90.318z
					 M108.778,73.398c-0.058-0.041-0.118-0.079-0.175-0.12l26.576-35.089c0.32,0.234,0.641,0.467,0.961,0.701l-26.468,34.946
					c-0.245-0.208-0.492-0.413-0.732-0.626C108.874,73.262,108.845,73.349,108.778,73.398z M134.212,37.482l-26.601,35.122
					c-0.416-0.277-0.837-0.548-1.26-0.816l26.652-35.189C133.406,36.894,133.809,37.188,134.212,37.482z M104.356,76.901
					l-9.679,12.78c-0.438-0.254-0.886-0.49-1.342-0.707l9.756-12.881L104.356,76.901z M92.859,92.082l-2.369,3.127
					c-0.459-0.23-0.937-0.43-1.425-0.598l2.425-3.201C91.958,91.612,92.414,91.835,92.859,92.082z M88.752,97.504l-2.064,2.725
					c-0.564-0.153-1.158-0.208-1.754-0.161l2.314-3.057C87.766,97.129,88.268,97.294,88.752,97.504z M80.408,106.042
					c0.069,0.304,0.166,0.604,0.297,0.9c0.108,0.243,0.239,0.469,0.381,0.686l-2.073,2.736c-0.344-0.386-0.651-0.808-0.922-1.262
					L80.408,106.042z M77.279,112.653l-2.369,3.127c-0.37-0.339-0.725-0.699-1.062-1.077l2.427-3.204
					C76.585,111.909,76.92,112.293,77.279,112.653z M73.092,118.18l-10.274,13.566c-0.403-0.294-0.807-0.588-1.21-0.882
					l10.396-13.726C72.352,117.503,72.716,117.85,73.092,118.18z M74.016,118.946c0.314,0.243,0.637,0.474,0.967,0.694
					L64.74,133.163c-0.021-0.015-0.043-0.031-0.064-0.047c0.003-0.005,0.007-0.009,0.01-0.013c-0.298-0.217-0.598-0.435-0.898-0.652
					L74.016,118.946z M65.706,133.873l10.298-13.596c0.422,0.245,0.854,0.474,1.295,0.684l-10.427,13.767
					C66.483,134.443,66.094,134.158,65.706,133.873z M77.822,117.876l2.368-3.127c0.443,0.223,0.904,0.414,1.374,0.578l-2.423,3.199
					C78.691,118.331,78.25,118.114,77.822,117.876z M81.93,112.453l2.064-2.725c0.544,0.146,1.114,0.201,1.688,0.163l-2.304,3.042
					C82.881,112.816,82.396,112.656,81.93,112.453z M90.254,103.854c-0.068-0.283-0.158-0.563-0.281-0.841
					c-0.107-0.241-0.238-0.466-0.378-0.681l2.073-2.737c0.331,0.371,0.628,0.779,0.892,1.216L90.254,103.854z M93.401,97.306
					l2.369-3.127c0.356,0.328,0.699,0.675,1.024,1.039l-2.423,3.199C94.071,98.023,93.747,97.652,93.401,97.306z M97.589,91.777
					l9.783-12.917l1.119,0.915l-9.851,13.005C98.304,92.43,97.951,92.097,97.589,91.777z M110.594,74.606l26.515-35.008
					c0.245,0.179,0.488,0.357,0.732,0.536c0.145,0.106,0.29,0.211,0.435,0.317l-26.557,35.063
					C111.342,75.213,110.967,74.911,110.594,74.606z M132.035,35.892l-26.7,35.254c-0.351-0.219-0.698-0.439-1.048-0.659
					l26.752-35.322C131.371,35.407,131.703,35.65,132.035,35.892z M102.077,75.446L92.205,88.48c-0.4-0.159-0.807-0.303-1.217-0.434
					l10.047-13.267L102.077,75.446z M90.325,90.962l-2.5,3.301c-0.453-0.101-0.914-0.174-1.38-0.219l2.613-3.45
					C89.486,90.7,89.91,90.822,90.325,90.962z M84.979,93.997c-1.383,0.042-2.78,0.333-4.126,0.903
					c-5.202,2.204-7.833,7.78-6.379,12.966l-2.776,3.667c-0.106-0.211-0.21-0.425-0.307-0.643
					c-3.347-7.516,0.185-16.256,7.889-19.521c2.77-1.175,5.701-1.477,8.476-1.038L84.979,93.997z M74.952,109.218
					c0.02,0.046,0.037,0.093,0.058,0.139c0.168,0.377,0.356,0.738,0.561,1.087l-2.499,3.301c-0.259-0.346-0.504-0.702-0.733-1.074
					L74.952,109.218z M71.19,116.228l-10.551,13.93c-0.333-0.243-0.665-0.486-0.995-0.728l10.761-14.207
					C70.654,115.57,70.919,115.902,71.19,116.228z M67.84,135.434l10.587-13.979c0.456,0.183,0.92,0.346,1.389,0.491l-10.841,14.314
					C68.598,135.987,68.22,135.711,67.84,135.434z M80.305,118.977l2.494-3.295c0.518,0.117,1.045,0.2,1.577,0.244l-2.628,3.469
					C81.26,119.279,80.777,119.139,80.305,118.977z M85.857,115.955c1.331-0.061,2.674-0.351,3.969-0.898
					c5.152-2.184,7.783-7.675,6.419-12.817l2.795-3.689c0.084,0.171,0.168,0.341,0.245,0.517c3.35,7.517-0.184,16.256-7.887,19.521
					c-2.724,1.154-5.604,1.467-8.338,1.06L85.857,115.955z M95.78,100.869c-0.038-0.089-0.072-0.18-0.112-0.269
					c-0.176-0.394-0.373-0.771-0.588-1.133l2.496-3.295c0.295,0.393,0.573,0.801,0.832,1.228L95.78,100.869z M99.455,93.691
					l9.964-13.157l1.089,0.89L100.346,94.84C100.063,94.443,99.766,94.061,99.455,93.691z M113.753,77.138
					c-0.362-0.294-0.729-0.587-1.096-0.878l26.586-35.103c0.378,0.276,0.756,0.552,1.134,0.828L113.753,77.138z M103.256,69.863
					c-0.281-0.149-0.609-0.313-0.937-0.487c-0.109-0.08-0.216-0.16-0.325-0.24l27.137-35.365c0.314,0.229,0.628,0.459,0.941,0.688
					L103.256,69.863z M128.742,106.367c-1.095,11.664-17.21,11.953-22.167,21.101c-6.226,11.49,0.437,25.784-10.586,35.299
					c-17.434,15.047-43.204-8.293-45.287-9.222c0,0-0.158-0.108-0.448-0.315c-0.027,0.04-0.055,0.08-0.083,0.12
					c-1.54-1.068-2.421-1.738-2.421-1.738c-1.514-1.677-31.871-18.988-22.155-39.626C31.738,98.936,47.69,101.02,57.16,91.88
					c7.54-7.278,3.158-22.412,14.284-26.81c10.613-4.195,22.626,0.182,27.513,8.383l1.065,0.68L89.748,87.699
					c-3.762-0.917-7.85-0.68-11.682,0.945c-9.245,3.919-13.485,14.41-9.468,23.43c0.325,0.73,0.698,1.425,1.106,2.088L58.679,128.72
					c-5.186-3.815-9.72-7.25-10.942-8.448c-1.449-1.42-2.854-2.989-3.8-4.782c-0.472-0.893-0.834-2.061-0.586-3.062
					c0.288-1.16,1.538-1.793,2.672-1.973c1.67-0.266,3.607,1.019,3.377,2.842c-0.042,0.344-0.257,0.8-0.596,0.956
					c-0.514,0.238-1.009-0.028-1.286-0.47c-0.133-0.212-0.249-0.501-0.272-0.75c-0.009-0.101,0.099-0.735-0.08-0.758
					c-0.456-0.059-1.133,0.107-1.538,0.31c-0.967,0.483-0.768,1.651-0.485,2.49c0.432,1.279,1.935,1.664,3.455,1.409
					c1.518-0.254,2.486-2.083,2.488-2.087c1.084-1.992-0.695-4.949-2.535-5.889c-0.627-0.32-1.517-0.556-2.232-0.488
					c-0.941,0.088-1.976,0.532-2.747,1.06c-5.208,3.561-2.387,10.756,5.093,17.198c4.85,4.177,8.686,7.242,12.735,10.078
					c4.098,3.157,8.317,5.978,14.048,9.496c8.443,5.187,16.314,5.798,18.348-0.082c0.3-0.87,0.446-1.964,0.267-2.869
					c-0.136-0.688-0.618-1.455-1.11-1.952c-1.441-1.457-4.851-2.289-6.504-0.712c-0.005,0.003-1.529,1.425-1.351,2.917
					c0.178,1.495,0.979,2.793,2.36,2.838c0.904,0.028,2.109-0.115,2.312-1.156c0.084-0.438,0.057-1.117-0.129-1.527
					c-0.072-0.161-0.667,0.119-0.769,0.139c-0.252,0.049-0.568,0.021-0.814-0.044c-0.512-0.136-0.913-0.522-0.824-1.07
					c0.059-0.362,0.446-0.691,0.771-0.828c1.729-0.729,3.537,0.722,3.748,2.36c0.143,1.113-0.127,2.461-1.188,3.058
					c-0.915,0.515-2.165,0.506-3.176,0.315c-2.029-0.379-3.969-1.253-5.774-2.209c-1.55-0.82-6.346-4.199-11.673-8.062L81.06,122.29
					c3.726,0.88,7.766,0.628,11.553-0.978c9.245-3.919,13.485-14.408,9.467-23.43c-0.306-0.688-0.657-1.345-1.039-1.976
					l10.396-13.724l1.118,0.915C122.014,85.287,129.786,95.24,128.742,106.367z M157.586,34.235l-12.632,5.746l-13.161-9.614
					l2.75-1.251c0.085-0.029,0.168-0.067,0.248-0.113l9.633-4.382L157.586,34.235z M164.977,31.5l-3.875,1.908
					c-0.002-0.001-13.773-10.061-13.773-10.061l2.65-3.833c3.02,5.203,8.856,4.474,8.856,4.474S159.651,30.862,164.977,31.5z"/>
			</g>
		</g>
		<rect x="4.734" y="5.066" fill="none" stroke="#000000" stroke-width="3.2" width="175.2" height="175.201"/>
		<rect x="7.934" y="8.667" fill="none" stroke="#000000" stroke-width="1.2" width="168.4" height="168.4"/>
	</g>
</g>
</svg>
