<?xml version="1.0" encoding="UTF-8" standalone="no"?>
<svg width="179px" height="179px" viewBox="0 0 179 179" version="1.1" xmlns="http://www.w3.org/2000/svg" xmlns:xlink="http://www.w3.org/1999/xlink" xmlns:sketch="http://www.bohemiancoding.com/sketch/ns">
    <!-- Generator: Sketch 3.1.1 (8761) - http://www.bohemiancoding.com/sketch -->
    <title>fretworkslogo_2009</title>
    <desc>Created with Sketch.</desc>
    <defs></defs>
    <g id="Page-1" stroke="none" stroke-width="1" fill="none" fill-rule="evenodd" sketch:type="MSPage">
        <g id="fretworkslogo_2009" sketch:type="MSLayerGroup" transform="translate(2.000000, 2.000000)">
            <g id="Foreground" sketch:type="MSShapeGroup">
                <g id="Group">
                    <g transform="translate(12.000000, 8.000000)" id="Shape" fill="#000000">
                        <path d="M27.431,112.883 C27.273,113.191 35.512,123.748 42.581,128.535 C48.805,132.75 59.731,137.514 60.28,136.344 C61.241,134.304 51.889,131.049 43.919,125.792 C35.747,120.402 29.152,109.51 27.431,112.883 L27.431,112.883 Z"></path>
                        <path d="M145.744,6.328 C144.509,6.524 143.348,6.788 142.083,6.748 C137.645,6.605 134.564,3.678 133.542,-0.445 C132.071,1.081 131.307,2.017 130.11,3.756 C128.976,5.402 128.405,6.387 127.545,8.183 L125.288,9.512 L124.3,8.103 C123.845,7.456 122.939,7.29 122.275,7.734 C121.612,8.177 121.442,9.062 121.897,9.709 L122.63,10.755 L121.414,11.346 L120.393,9.891 C119.939,9.244 119.033,9.078 118.37,9.521 C117.706,9.965 117.536,10.849 117.991,11.497 L118.783,12.626 L117.689,13.158 L116.697,11.744 C116.243,11.096 115.337,10.931 114.673,11.375 C114.009,11.818 113.839,12.703 114.294,13.351 L115.058,14.438 L113.136,15.372 L113.121,15.352 L112.945,15.465 L112.919,15.501 L109.06,18.316 L109.048,18.353 L82.333,53.17 C76.019,45.25 63.58,41.221 52.613,45.38 C40.146,50.108 45.371,67.133 37.002,75.15 C26.491,85.218 8.46,82.601 1.775,97.104 C-0.046,101.054 -0.749,106.003 0.117,110.246 C0.99,114.518 3.176,118.506 5.682,122.069 C8.152,125.582 11.101,128.724 14.315,131.598 C16.943,133.95 19.704,136.174 22.551,138.267 C26.974,141.521 31.512,144.63 36.004,147.79 C36.937,148.446 37.86,149.117 38.803,149.76 C44.241,153.464 50.021,156.779 56.309,158.888 C61.811,160.732 67.887,161.771 73.626,160.361 C76.916,159.552 80.246,157.767 82.808,155.592 C95.102,145.15 87.314,129.068 94.148,116.337 C99.589,106.199 117.805,106.151 118.835,93.14 C119.78,81.189 111.506,70.321 101.309,67.2 L128.144,32.227 L128.125,32.213 C128.354,32.106 128.523,31.79 128.664,31.582 L130.984,29.901 L130.946,29.829 L132.196,29.194 L133.177,30.46 C133.662,31.086 134.576,31.21 135.217,30.736 C135.859,30.263 135.986,29.371 135.501,28.745 L134.815,27.861 L134.928,27.803 L136.018,27.249 L136.948,28.449 C137.433,29.074 138.346,29.199 138.988,28.725 C139.63,28.251 139.757,27.36 139.27,26.734 L138.638,25.918 L139.532,25.464 L140.504,26.717 C140.989,27.343 141.902,27.467 142.544,26.993 C143.185,26.52 143.313,25.629 142.827,25.003 L142.152,24.132 L142.764,23.821 L144.663,22.674 C147.376,22.959 152.955,19.567 154.374,16.598 C154.282,16.788 152.307,16.568 152.051,16.537 C151.378,16.458 150.719,16.303 150.096,16.04 C146.054,14.34 145.749,10.027 145.744,6.328 L145.744,6.328 Z M98.406,65.69 C98.14,65.441 97.883,65.185 97.642,64.948 L124.343,29.692 C124.704,29.955 125.062,30.217 125.422,30.48 L98.406,65.69 L98.406,65.69 Z M76.625,90.714 L69.532,100.078 C68.927,100.163 68.32,100.186 67.721,100.143 L70.558,96.398 C72.082,95.67 73.074,94.284 73.324,92.745 L76.153,89.011 C76.377,89.572 76.533,90.14 76.625,90.714 L76.625,90.714 Z M76.708,92.587 C76.481,95.521 74.643,98.237 71.685,99.49 C71.591,99.529 71.497,99.557 71.403,99.594 L76.708,92.587 L76.708,92.587 Z M60.08,93.41 L67.32,83.85 C67.848,83.787 68.375,83.775 68.897,83.809 L66.024,87.603 C64.586,88.326 63.636,89.644 63.367,91.111 L60.504,94.892 C60.312,94.403 60.171,93.908 60.08,93.41 L60.08,93.41 Z M59.961,91.582 C60.113,88.568 61.965,85.749 64.994,84.465 C65.158,84.397 65.323,84.342 65.489,84.284 L59.961,91.582 L59.961,91.582 Z M69.341,94.23 C69.151,94.312 68.955,94.365 68.759,94.396 L70.832,91.659 C70.976,92.717 70.396,93.784 69.341,94.23 L69.341,94.23 Z M67.372,94.243 C67.002,94.092 66.669,93.857 66.405,93.549 L69.309,89.715 C69.678,89.865 70.011,90.102 70.274,90.411 L67.372,94.243 L67.372,94.243 Z M58.827,103.555 L61.175,100.454 C61.486,100.703 61.807,100.934 62.141,101.148 L59.793,104.249 C59.463,104.031 59.14,103.799 58.827,103.555 L58.827,103.555 Z M62.886,98.196 L64.877,95.568 C65.171,95.838 65.498,96.066 65.845,96.258 L63.847,98.897 C63.51,98.689 63.191,98.451 62.886,98.196 L62.886,98.196 Z M67.337,89.725 C67.529,89.644 67.728,89.59 67.925,89.558 L65.846,92.302 C65.7,91.243 66.28,90.173 67.337,89.725 L67.337,89.725 Z M70.836,87.699 L72.834,85.06 C73.172,85.268 73.489,85.507 73.794,85.762 L71.804,88.391 C71.509,88.121 71.183,87.891 70.836,87.699 L70.836,87.699 Z M74.54,82.808 L76.887,79.708 C77.218,79.927 77.54,80.158 77.854,80.403 L75.505,83.503 C75.195,83.254 74.873,83.022 74.54,82.808 L74.54,82.808 Z M78.699,77.318 L88.369,64.548 L88.515,64.642 C88.563,64.58 88.609,64.519 88.656,64.457 L89.443,65.1 L79.666,78.011 C79.351,77.768 79.027,77.539 78.699,77.318 L78.699,77.318 Z M91.778,60.398 C91.72,60.357 91.66,60.319 91.603,60.278 L118.179,25.189 C118.499,25.423 118.82,25.656 119.14,25.89 L92.672,60.836 C92.427,60.628 92.18,60.423 91.94,60.21 C91.874,60.262 91.845,60.349 91.778,60.398 L91.778,60.398 Z M117.212,24.482 L90.611,59.604 C90.195,59.327 89.774,59.056 89.351,58.788 L116.003,23.599 C116.406,23.894 116.809,24.188 117.212,24.482 L117.212,24.482 Z M87.356,63.901 L77.677,76.681 C77.239,76.427 76.791,76.191 76.335,75.974 L86.091,63.093 L87.356,63.901 L87.356,63.901 Z M75.859,79.082 L73.49,82.209 C73.031,81.979 72.553,81.779 72.065,81.611 L74.49,78.41 C74.958,78.612 75.414,78.835 75.859,79.082 L75.859,79.082 Z M71.752,84.504 L69.688,87.229 C69.124,87.076 68.53,87.021 67.934,87.068 L70.248,84.011 C70.766,84.129 71.268,84.294 71.752,84.504 L71.752,84.504 Z M63.408,93.042 C63.477,93.346 63.574,93.646 63.705,93.942 C63.813,94.185 63.944,94.411 64.086,94.628 L62.013,97.364 C61.669,96.978 61.362,96.556 61.091,96.102 L63.408,93.042 L63.408,93.042 Z M60.279,99.653 L57.91,102.78 C57.54,102.441 57.185,102.081 56.848,101.703 L59.275,98.499 C59.585,98.909 59.92,99.293 60.279,99.653 L60.279,99.653 Z M56.092,105.18 L45.818,118.746 C45.415,118.452 45.011,118.158 44.608,117.864 L55.004,104.138 C55.352,104.503 55.716,104.85 56.092,105.18 L56.092,105.18 Z M57.016,105.946 C57.33,106.189 57.653,106.42 57.983,106.64 L47.74,120.163 C47.719,120.148 47.697,120.132 47.676,120.116 C47.679,120.111 47.683,120.107 47.686,120.103 C47.388,119.886 47.088,119.668 46.788,119.451 L57.016,105.946 L57.016,105.946 Z M48.706,120.873 L59.004,107.277 C59.426,107.522 59.858,107.751 60.299,107.961 L49.872,121.728 C49.483,121.443 49.094,121.158 48.706,120.873 L48.706,120.873 Z M60.822,104.876 L63.19,101.749 C63.633,101.972 64.094,102.163 64.564,102.327 L62.141,105.526 C61.691,105.331 61.25,105.114 60.822,104.876 L60.822,104.876 Z M64.93,99.453 L66.994,96.728 C67.538,96.874 68.108,96.929 68.682,96.891 L66.378,99.933 C65.881,99.816 65.396,99.656 64.93,99.453 L64.93,99.453 Z M73.254,90.854 C73.186,90.571 73.096,90.291 72.973,90.013 C72.866,89.772 72.735,89.547 72.595,89.332 L74.668,86.595 C74.999,86.966 75.296,87.374 75.56,87.811 L73.254,90.854 L73.254,90.854 Z M76.401,84.306 L78.77,81.179 C79.126,81.507 79.469,81.854 79.794,82.218 L77.371,85.417 C77.071,85.023 76.747,84.652 76.401,84.306 L76.401,84.306 Z M80.589,78.777 L90.372,65.86 L91.491,66.775 L81.64,79.78 C81.304,79.43 80.951,79.097 80.589,78.777 L80.589,78.777 Z M93.594,61.606 L120.109,26.598 C120.354,26.777 120.597,26.955 120.841,27.134 C120.986,27.24 121.131,27.345 121.276,27.451 L94.719,62.514 C94.342,62.213 93.967,61.911 93.594,61.606 L93.594,61.606 Z M115.035,22.892 L88.335,58.146 C87.984,57.927 87.637,57.707 87.287,57.487 L114.039,22.165 C114.371,22.407 114.703,22.65 115.035,22.892 L115.035,22.892 Z M85.077,62.446 L75.205,75.48 C74.805,75.321 74.398,75.177 73.988,75.046 L84.035,61.779 L85.077,62.446 L85.077,62.446 Z M73.325,77.962 L70.825,81.263 C70.372,81.162 69.911,81.089 69.445,81.044 L72.058,77.594 C72.486,77.7 72.91,77.822 73.325,77.962 L73.325,77.962 Z M67.979,80.997 C66.596,81.039 65.199,81.33 63.853,81.9 C58.651,84.104 56.02,89.68 57.474,94.866 L54.698,98.533 C54.592,98.322 54.488,98.108 54.391,97.89 C51.044,90.374 54.576,81.634 62.28,78.369 C65.05,77.194 67.981,76.892 70.756,77.331 L67.979,80.997 L67.979,80.997 Z M57.952,96.218 C57.972,96.264 57.989,96.311 58.01,96.357 C58.178,96.734 58.366,97.095 58.571,97.444 L56.072,100.745 C55.813,100.399 55.568,100.043 55.339,99.671 L57.952,96.218 L57.952,96.218 Z M54.19,103.228 L43.639,117.158 C43.306,116.915 42.974,116.672 42.644,116.43 L53.405,102.223 C53.654,102.57 53.919,102.902 54.19,103.228 L54.19,103.228 Z M50.84,122.434 L61.427,108.455 C61.883,108.638 62.347,108.801 62.816,108.946 L51.975,123.26 C51.598,122.987 51.22,122.711 50.84,122.434 L50.84,122.434 Z M63.305,105.977 L65.799,102.682 C66.317,102.799 66.844,102.882 67.376,102.926 L64.748,106.395 C64.26,106.279 63.777,106.139 63.305,105.977 L63.305,105.977 Z M68.857,102.955 C70.188,102.894 71.531,102.604 72.826,102.057 C77.978,99.873 80.609,94.382 79.245,89.24 L82.04,85.551 C82.124,85.722 82.208,85.892 82.285,86.068 C85.635,93.585 82.101,102.324 74.398,105.589 C71.674,106.743 68.794,107.056 66.06,106.649 L68.857,102.955 L68.857,102.955 Z M78.78,87.869 C78.742,87.78 78.708,87.689 78.668,87.6 C78.492,87.206 78.295,86.829 78.08,86.467 L80.576,83.172 C80.871,83.565 81.149,83.973 81.408,84.4 L78.78,87.869 L78.78,87.869 Z M82.455,80.691 L92.419,67.534 L93.508,68.424 L83.346,81.84 C83.063,81.443 82.766,81.061 82.455,80.691 L82.455,80.691 Z M96.753,64.138 C96.391,63.844 96.024,63.551 95.657,63.26 L122.243,28.157 C122.621,28.433 122.999,28.709 123.377,28.985 L96.753,64.138 L96.753,64.138 Z M86.256,56.863 C85.975,56.714 85.647,56.55 85.319,56.376 C85.21,56.296 85.103,56.216 84.994,56.136 L112.131,20.771 C112.445,21 112.759,21.23 113.072,21.459 L86.256,56.863 L86.256,56.863 Z M111.742,93.367 C110.647,105.031 94.532,105.32 89.575,114.468 C83.349,125.958 90.012,140.252 78.989,149.767 C61.555,164.814 35.785,141.474 33.702,140.545 C33.702,140.545 33.544,140.437 33.254,140.23 C33.227,140.27 33.199,140.31 33.171,140.35 C31.631,139.282 30.75,138.612 30.75,138.612 C29.236,136.935 -1.121,119.624 8.595,98.986 C14.738,85.936 30.69,88.02 40.16,78.88 C47.7,71.602 43.318,56.468 54.444,52.07 C65.057,47.875 77.07,52.252 81.957,60.453 L83.022,61.133 L72.748,74.699 C68.986,73.782 64.898,74.019 61.066,75.644 C51.821,79.563 47.581,90.054 51.598,99.074 C51.923,99.804 52.296,100.499 52.704,101.162 L41.679,115.72 C36.493,111.905 31.959,108.47 30.737,107.272 C29.288,105.852 27.883,104.283 26.937,102.49 C26.465,101.597 26.103,100.429 26.351,99.428 C26.639,98.268 27.889,97.635 29.023,97.455 C30.693,97.189 32.63,98.474 32.4,100.297 C32.358,100.641 32.143,101.097 31.804,101.253 C31.29,101.491 30.795,101.225 30.518,100.783 C30.385,100.571 30.269,100.282 30.246,100.033 C30.237,99.932 30.345,99.298 30.166,99.275 C29.71,99.216 29.033,99.382 28.628,99.585 C27.661,100.068 27.86,101.236 28.143,102.075 C28.575,103.354 30.078,103.739 31.598,103.484 C33.116,103.23 34.084,101.401 34.086,101.397 C35.17,99.405 33.391,96.448 31.551,95.508 C30.924,95.188 30.034,94.952 29.319,95.02 C28.378,95.108 27.343,95.552 26.572,96.08 C21.364,99.641 24.185,106.836 31.665,113.278 C36.515,117.455 40.351,120.52 44.4,123.356 C48.498,126.513 52.717,129.334 58.448,132.852 C66.891,138.039 74.762,138.65 76.796,132.77 C77.096,131.9 77.242,130.806 77.063,129.901 C76.927,129.213 76.445,128.446 75.953,127.949 C74.512,126.492 71.102,125.66 69.449,127.237 C69.444,127.24 67.92,128.662 68.098,130.154 C68.276,131.649 69.077,132.947 70.458,132.992 C71.362,133.02 72.567,132.877 72.77,131.836 C72.854,131.398 72.827,130.719 72.641,130.309 C72.569,130.148 71.974,130.428 71.872,130.448 C71.62,130.497 71.304,130.469 71.058,130.404 C70.546,130.268 70.145,129.882 70.234,129.334 C70.293,128.972 70.68,128.643 71.005,128.506 C72.734,127.777 74.542,129.228 74.753,130.866 C74.896,131.979 74.626,133.327 73.565,133.924 C72.65,134.439 71.4,134.43 70.389,134.239 C68.36,133.86 66.42,132.986 64.615,132.03 C63.065,131.21 58.269,127.831 52.942,123.968 L64.06,109.29 C67.786,110.17 71.826,109.918 75.613,108.312 C84.858,104.393 89.098,93.904 85.08,84.882 C84.774,84.194 84.423,83.537 84.041,82.906 L94.437,69.182 L95.555,70.097 C105.014,72.287 112.786,82.24 111.742,93.367 L111.742,93.367 Z M140.586,21.235 L127.954,26.981 L114.793,17.367 L117.543,16.116 C117.628,16.087 117.711,16.049 117.791,16.003 L127.424,11.621 L140.586,21.235 L140.586,21.235 Z M147.977,18.5 L144.102,20.408 C144.1,20.407 130.329,10.347 130.329,10.347 L132.979,6.514 C135.999,11.717 141.835,10.988 141.835,10.988 C141.835,10.988 142.651,17.862 147.977,18.5 L147.977,18.5 Z"></path>
                    </g>
                    <rect id="Rectangle-path" stroke="#000000" stroke-width="3.2" x="0" y="0" width="175.2" height="175.201"></rect>
                    <rect id="Rectangle-path" stroke="#000000" stroke-width="1.2" x="3" y="4" width="168.4" height="168.4"></rect>
                </g>
            </g>
        </g>
    </g>
</svg>